<?xml version="1.0" encoding="UTF-8" standalone="no"?>
<svg
   xmlns:dc="http://purl.org/dc/elements/1.1/"
   xmlns:cc="http://creativecommons.org/ns#"
   xmlns:rdf="http://www.w3.org/1999/02/22-rdf-syntax-ns#"
   xmlns:svg="http://www.w3.org/2000/svg"
   xmlns="http://www.w3.org/2000/svg"
   xmlns:sodipodi="http://sodipodi.sourceforge.net/DTD/sodipodi-0.dtd"
   xmlns:inkscape="http://www.inkscape.org/namespaces/inkscape"
   version="1.1"
   id="svg2"
   xml:space="preserve"
   width="1120.4532"
   height="1241.6801"
   viewBox="0 0 1120.4532 1241.6801"
   sodipodi:docname="Ketnet_Logo_Extern_RGB_Blauw-01.eps"><metadata
     id="metadata8"><rdf:RDF><cc:Work
         rdf:about=""><dc:format>image/svg+xml</dc:format><dc:type
           rdf:resource="http://purl.org/dc/dcmitype/StillImage" /></cc:Work></rdf:RDF></metadata><defs
     id="defs6" /><sodipodi:namedview
     pagecolor="#ffffff"
     bordercolor="#666666"
     borderopacity="1"
     objecttolerance="10"
     gridtolerance="10"
     guidetolerance="10"
     inkscape:pageopacity="0"
     inkscape:pageshadow="2"
     inkscape:window-width="640"
     inkscape:window-height="480"
     id="namedview4" /><g
     id="g10"
     inkscape:groupmode="layer"
     inkscape:label="ink_ext_XXXXXX"
     transform="matrix(1.3333333,0,0,-1.3333333,0,1241.68)"><g
       id="g12"
       transform="scale(0.1)"><path
         d="m 3747.25,4579.09 v 0 c -316.25,316.24 -316.25,828.99 0,1145.24 L 5130.5,7107.58 c 316.25,316.25 829,316.25 1145.25,0 v 0 c 316.26,-316.25 316.26,-829 0.01,-1145.25 L 4892.5,4579.09 c -316.26,-316.26 -829,-316.26 -1145.25,0"
         style="fill:#1042df;fill-opacity:1;fill-rule:nonzero;stroke:none"
         id="path14" /><path
         d="m 6275.75,3195.5 v 0 c -316.25,-316.25 -829,-316.25 -1145.25,0 L 3747.25,4578.75 C 3431,4895 3431,5407.75 3747.25,5724 v 0 c 316.25,316.25 828.99,316.25 1145.25,0 L 6275.76,4340.75 c 316.25,-316.25 316.25,-829 -0.01,-1145.25"
         style="fill:#1d0259;fill-opacity:1;fill-rule:nonzero;stroke:none"
         id="path16" /><path
         d="m 6275.75,4340.75 c 316.26,-316.25 316.26,-829 0,-1145.25 -316.25,-316.25 -829,-316.25 -1145.25,0 -316.25,316.25 -316.25,829 0,1145.25 316.25,316.25 829,316.25 1145.25,0"
         style="fill:#1042df;fill-opacity:1;fill-rule:nonzero;stroke:none"
         id="path18" /><path
         d="m 2700.25,3780.6 v 0 c -447.24,0 -809.81,362.57 -809.81,809.81 v 3912.43 c 0,447.25 362.57,809.81 809.81,809.81 v 0 c 447.25,0 809.82,-362.56 809.82,-809.81 V 4590.41 c 0,-447.24 -362.57,-809.81 -809.82,-809.81"
         style="fill:#1042df;fill-opacity:1;fill-rule:nonzero;stroke:none"
         id="path20" /><path
         d="M 8403.38,0 H -0.00390625 V 2519.95 H 8403.38 V 0"
         style="fill:#1042df;fill-opacity:1;fill-rule:nonzero;stroke:none"
         id="path22" /><path
         d="M 1038.56,1184.37 872.977,1009.78 V 629.992 H 629.984 V 1889.96 h 242.993 v -565.19 l 534.573,565.19 h 300.58 l -494.98,-522 505.78,-737.968 h -300.58 l -379.79,554.378"
         style="fill:#ffffff;fill-opacity:1;fill-rule:nonzero;stroke:none"
         id="path24" /><path
         d="M 2836.59,845.98 V 629.992 H 1864.63 V 1889.96 h 953.99 v -216 h -711 v -289.8 h 602.97 v -215.98 h -602.97 v -322.2 h 728.97"
         style="fill:#ffffff;fill-opacity:1;fill-rule:nonzero;stroke:none"
         id="path26" /><path
         d="m 3374.68,1673.96 h -435.6 v 216 h 1115.98 v -216 H 3617.67 V 629.992 H 3374.68 V 1673.96"
         style="fill:#ffffff;fill-opacity:1;fill-rule:nonzero;stroke:none"
         id="path28" /><path
         d="M 5287.87,1889.96 V 629.992 H 4972.89 L 4477.91,1556.97 V 629.992 h -243 V 1889.96 h 314.99 l 494.99,-923.378 v 923.378 h 242.98"
         style="fill:#ffffff;fill-opacity:1;fill-rule:nonzero;stroke:none"
         id="path30" /><path
         d="M 6554.93,845.98 V 629.992 H 5582.97 V 1889.96 h 953.99 v -216 h -711 v -289.8 h 602.97 v -215.98 h -602.97 v -322.2 h 728.97"
         style="fill:#ffffff;fill-opacity:1;fill-rule:nonzero;stroke:none"
         id="path32" /><path
         d="m 7093.02,1673.96 h -435.6 v 216 h 1115.97 v -216 H 7336.01 V 629.992 H 7093.02 V 1673.96"
         style="fill:#ffffff;fill-opacity:1;fill-rule:nonzero;stroke:none"
         id="path34" /></g></g></svg>
