<svg version="1.2" xmlns="http://www.w3.org/2000/svg" viewBox="0 0 4500 5252" width="4500" height="5252">
	<title>KETNET-K-2024</title>
	<style>
		.s0 { fill: #021037 } 
		.s1 { fill: #6de29b } 
	</style>
	<g id="Layer 1">
		<path id="Path" class="s0" d="m196 0l4304 414-196 2041-372-36 221 1012-3587 786-421-1921 764-168-909-87z"/>
		<path id="Path" fill-rule="evenodd" class="s0" d="m1482.1 5088.2l490.4-107.9-32.5-147.6-316.9 69.7-27.3-124.4 240.9-52.9-32.5-147.7-240.9 53-24.6-112.2 305.6-67.2-32.4-147.7-479.2 105.4zm397.6-645l194.3-42.8 116.9 531.9 173.6-38.1-117-531.9 194.3-42.7-32.5-147.7-562 123.6zm1423.2 244.7l489.6-107.7-32.5-147.6-316.8 69.6-27.4-124.3 240.9-52.9-32.4-147.7-240.9 53-24.7-112.3 305.6-67.2-32.4-147.6-478.4 105.1zm396.8-644.8l194.3-42.7 116.9 531.9 173.6-38.2-116.9-531.8 194.2-42.8-32.4-147.6-562.1 123.6zm-2801.2 676.5l-82.1-196.5-177.8 72.6 154.6 377.9-42.6 102.6 104.5 43.1 56.3 132.4 174.7-78.2-84.5-203.2 27.2-65.7 285.2 218.8 115.9-152.2-323.8-250.2 82.3-206.3-177.3-73.3zm1576.3-484.1l31.4 27.5 126 573.3 173.6-38.2-74.6-339.3 347.6 301 47.7-54.8 82.9-18.3-145-659.6-173.6 38.1 75.5 347.3-369.9-319.6z"/>
		<path id="Path" class="s1" d="m2602 565l573 396-498 708 991 1169-534 445-18-18-856-1010-152 216 149 840-688 120-97-549-340-235 238-338-261-1461 5-3 683-119 140 781z"/>
	</g>
</svg>