<?xml version="1.0" encoding="utf-8"?>
<!-- Generator: Adobe Illustrator 27.2.0, SVG Export Plug-In . SVG Version: 6.00 Build 0)  -->
<svg version="1.1" id="Шар_1" xmlns="http://www.w3.org/2000/svg" xmlns:xlink="http://www.w3.org/1999/xlink" x="0px" y="0px"
	 viewBox="0 0 1000 1160.4" style="enable-background:new 0 0 1000 1160.4;" xml:space="preserve">
<style type="text/css">
	.st0{fill:#FF00FE;}
	.st1{fill:#020F39;}
</style>
<path class="st0" d="M703.8,33.5v939.4c0,16.3-9.4,31-24.2,37.9l-314.2,146.5c-4.7,2.2-9.5,3.2-14.1,3.2
	c-17.6,0-33.5-14.2-33.5-33.5V308.8l-105.2-51c-21.2-10.3-20.9-40.6,0.5-50.4L656.3,3.1c4.6-2.1,9.4-3.1,14-3.1
	C687.9,0,703.8,14.2,703.8,33.5z"/>
<g>
	<path class="st1" d="M877.4,396c-16.9-15.1-26.6-37.9-28.5-65.9H747.1c0.8,20.9,4.3,40.9,10.3,59.7c10.3,32.2,28.4,60.6,52.2,81.9
		c23.5,21.1,51.8,35.1,84,41.8c13.8,2.9,28,4.3,42.6,4.3h32.4V416.1h-32.2C912.6,416.1,892.3,409.3,877.4,396z M968.6,712.4
		c-19.9,9.9-44.5,15.6-61.4,15.6c-31.9,0-48.6-10.1-55-48.7c-4.8-28.7-6.6-87.3-1.1-140.4H745.2c-5.1,63.1-5.4,102,2.8,157.2
		c13,87,65.4,134.8,153.5,134.2c32-0.2,59.6-6.6,98.5-27L968.6,712.4z"/>
	<path class="st1" d="M703.8,439.3v99.6l-22.3-0.9c-108.9-4.4-135.9,57.8-135.9,164.8c0.3,37.5,3.4,75.9,7.6,122.7H442.5
		C402,465.2,559.6,438.1,683,438.1C685.4,438.1,696.5,438.4,703.8,439.3z"/>
	<path class="st1" d="M435.5,439.3c-20.5,64.4-43,128.9-67.9,194.4c-24.8,65.5-48.9,129.5-77.5,191.9H145.4
		c-28.6-62.4-52.7-126.4-77.5-191.9C43,568.2,20.5,503.7,0,439.3h117.4c15.2,56.1,35.5,118.6,54.9,176.5
		c14.2,42.2,27.8,81,43.3,121.8h4.1c15.6-40.8,29.2-79.5,43.3-121.8c19.4-57.9,39.8-120.4,54.9-176.5H435.5z"/>
</g>
</svg>
